<?xml version="1.0" encoding="UTF-8" standalone="no"?>
<!-- Created with Inkscape (http://www.inkscape.org/) -->

<svg
   width="210mm"
   height="297mm"
   viewBox="0 0 210 297"
   version="1.1"
   id="svg1"
   inkscape:version="1.3.2 (091e20e, 2023-11-25, custom)"
   sodipodi:docname="logo1.svg"
   xmlns:inkscape="http://www.inkscape.org/namespaces/inkscape"
   xmlns:sodipodi="http://sodipodi.sourceforge.net/DTD/sodipodi-0.dtd"
   xmlns="http://www.w3.org/2000/svg"
   xmlns:svg="http://www.w3.org/2000/svg">
  <sodipodi:namedview
     id="namedview1"
     pagecolor="#ffffff"
     bordercolor="#000000"
     borderopacity="0.25"
     inkscape:showpageshadow="2"
     inkscape:pageopacity="0.0"
     inkscape:pagecheckerboard="0"
     inkscape:deskcolor="#d1d1d1"
     inkscape:document-units="mm"
     inkscape:zoom="2"
     inkscape:cx="227.25"
     inkscape:cy="218.75"
     inkscape:window-width="1920"
     inkscape:window-height="1017"
     inkscape:window-x="-8"
     inkscape:window-y="-8"
     inkscape:window-maximized="1"
     inkscape:current-layer="layer1" />
  <defs
     id="defs1" />
  <g
     inkscape:label="SlÄnis 1"
     inkscape:groupmode="layer"
     id="layer1">
    <rect
       style="fill:#fb8b24;fill-opacity:1;stroke:none;stroke-width:0.925474;stroke-linecap:round;stroke-linejoin:bevel"
       id="rect2"
       width="4.3209643"
       height="23.411089"
       x="-2.28459"
       y="65.895454"
       ry="1.7866355"
       transform="matrix(0.82272081,-0.56844566,0.44467248,0.89569324,0,0)" />
    <rect
       style="fill:#e36414;fill-opacity:1;stroke:none;stroke-width:0.346412;stroke-linecap:round;stroke-linejoin:bevel"
       id="rect1"
       width="15.987416"
       height="3.7090802"
       x="22.254486"
       y="57.298904"
       ry="1.8545401" />
    <rect
       style="fill:#fb8b24;fill-opacity:1;stroke:none;stroke-width:0.806072;stroke-linecap:round;stroke-linejoin:bevel"
       id="rect2-6-9"
       width="3.2779386"
       height="23.411076"
       x="-66.725662"
       y="46.593418"
       ry="1.7866344"
       transform="matrix(-0.98240544,-0.18676068,0.00124178,0.99999923,0,0)" />
    <rect
       style="fill:#fb8b24;fill-opacity:1;stroke:none;stroke-width:0.793324;stroke-linecap:round;stroke-linejoin:bevel"
       id="rect2-6-9-9"
       width="3.3698292"
       height="22.058058"
       x="-42.909737"
       y="84.875084"
       ry="1.6833779"
       transform="matrix(-0.90811432,0.41872233,0.36825272,0.92972573,0,0)" />
    <rect
       style="fill:#fb8b24;fill-opacity:1;stroke:none;stroke-width:0.925474;stroke-linecap:round;stroke-linejoin:bevel"
       id="rect2-6-9-9-4"
       width="4.3209643"
       height="23.411089"
       x="-87.071381"
       y="47.524406"
       ry="1.7866355"
       transform="matrix(-0.99038947,-0.13830651,0.00505547,0.99998722,0,0)" />
    <rect
       style="fill:#e36414;fill-opacity:1;stroke:none;stroke-width:0.925474;stroke-linecap:round;stroke-linejoin:bevel"
       id="rect2-6-8"
       width="4.3209643"
       height="23.411089"
       x="13.948978"
       y="76.868233"
       ry="1.7866355"
       transform="matrix(0.82272081,-0.56844566,0.44467248,0.89569324,0,0)" />
    <rect
       style="fill:#fb8b24;fill-opacity:1;stroke:none;stroke-width:0.940913;stroke-linecap:round;stroke-linejoin:bevel"
       id="rect2-6"
       width="4.4084482"
       height="23.718493"
       x="-73.303764"
       y="21.286566"
       ry="1.8100953"
       transform="matrix(-0.82656808,-0.56283675,-0.44988965,0.89308415,0,0)" />
    <rect
       style="fill:#ffffff;fill-opacity:1;stroke:none;stroke-width:0.995529;stroke-linecap:round;stroke-linejoin:bevel"
       id="rect2-6-0"
       width="4.6275921"
       height="25.294569"
       x="-77.338959"
       y="19.647444"
       ry="1.9303746"
       transform="matrix(-0.81776774,-0.57554836,-0.43811336,0.89891973,0,0)" />
    <ellipse
       style="fill:#fffdfb;fill-opacity:1;stroke:#fb8b24;stroke-width:2.52937;stroke-linecap:round;stroke-linejoin:bevel;stroke-dasharray:none;stroke-opacity:1"
       id="path2"
       cx="67.839912"
       cy="61.695595"
       rx="5.1766558"
       ry="4.4014926" />
    <ellipse
       style="fill:#fffdfb;fill-opacity:1;stroke:#ffffff;stroke-width:3.38899;stroke-linecap:round;stroke-linejoin:bevel;stroke-dasharray:none;stroke-opacity:1"
       id="path3"
       cx="84.176285"
       cy="60.45813"
       rx="4.7932401"
       ry="6.0141597" />
    <path
       sodipodi:type="star"
       style="fill:#e36414;fill-opacity:1;stroke:#ffffff;stroke-width:3.38899;stroke-linecap:round;stroke-linejoin:bevel;stroke-dasharray:none;stroke-opacity:1"
       id="path4"
       inkscape:flatsided="false"
       sodipodi:sides="5"
       sodipodi:cx="95.54081"
       sodipodi:cy="36.96291"
       sodipodi:r1="25.375048"
       sodipodi:r2="12.687524"
       sodipodi:arg1="0.72120079"
       sodipodi:arg2="1.3495193"
       inkscape:rounded="0"
       inkscape:randomized="0"
       d="M 114.59781,53.717723 98.325413,49.341086 85.494973,60.264717 84.628954,43.436291 70.27514,34.609405 l 15.737169,-6.023902 3.959295,-16.378946 10.592126,13.105449 16.80079,-1.295859 -9.19088,14.123515 z"
       inkscape:transform-center-x="0.43766388"
       inkscape:transform-center-y="-0.18495358"
       transform="matrix(0.25431065,0,0,0.25431065,59.734459,51.272633)" />
    <g
       id="g8"
       transform="translate(-1.7266411)">
      <path
         style="fill:#fb8b24;fill-opacity:1;stroke:#fb8b24;stroke-width:2.06511;stroke-linecap:round;stroke-linejoin:bevel;stroke-dasharray:none;stroke-opacity:1"
         id="path5-9-5"
         sodipodi:type="arc"
         sodipodi:cx="15.970241"
         sodipodi:cy="117.61352"
         sodipodi:rx="6.8262944"
         sodipodi:ry="7.2674823"
         sodipodi:start="3.0171797"
         sodipodi:end="6.177702"
         sodipodi:arc-type="slice"
         d="m 9.1967087,118.51536 a 6.8262944,7.2674823 0 0 1 2.6875873,-6.72366 6.8262944,7.2674823 0 0 1 6.818269,-0.8381 6.8262944,7.2674823 0 0 1 4.056028,5.89474 l -6.788352,0.76518 z"
         transform="matrix(0.74663987,-0.66522846,0.76777501,0.64071954,0,0)" />
      <path
         style="fill:#e36414;fill-opacity:1;stroke:#e36414;stroke-width:2.20174;stroke-linecap:round;stroke-linejoin:bevel;stroke-dasharray:none;stroke-opacity:1"
         id="path5-9-5-7"
         sodipodi:type="arc"
         sodipodi:cx="-16.295815"
         sodipodi:cy="-122.99078"
         sodipodi:rx="6.9161863"
         sodipodi:ry="7.7278066"
         sodipodi:start="3.0171797"
         sodipodi:end="6.177702"
         sodipodi:arc-type="slice"
         d="m -23.158543,-122.03182 a 6.9161863,7.7278066 0 0 1 2.722979,-7.14954 6.9161863,7.7278066 0 0 1 6.908054,-0.89118 6.9161863,7.7278066 0 0 1 4.1094402,6.26811 l -6.8777452,0.81365 z"
         transform="matrix(-0.69252917,0.72138987,-0.71575768,-0.69834873,0,0)" />
      <ellipse
         style="fill:#ffffff;fill-opacity:1;stroke:none;stroke-width:2.49285;stroke-linecap:round;stroke-linejoin:bevel;stroke-dasharray:none;stroke-opacity:1"
         id="path6-1-5"
         cx="100.0619"
         cy="74.387741"
         rx="4.6970215"
         ry="5.1195564" />
      <ellipse
         style="fill:#ffffff;fill-opacity:1;stroke:none;stroke-width:2.41617;stroke-linecap:round;stroke-linejoin:bevel;stroke-dasharray:none;stroke-opacity:1"
         id="path6-1"
         cx="-101.4492"
         cy="-64.791107"
         rx="4.6970215"
         ry="4.8094511"
         transform="scale(-1)" />
      <rect
         style="fill:#ffffff;fill-opacity:1;stroke:#ffffff;stroke-width:2.23843;stroke-linecap:round;stroke-linejoin:bevel;stroke-dasharray:none;stroke-opacity:1"
         id="rect6-0"
         width="7.3824973"
         height="0.51074207"
         x="107.32354"
         y="52.414211"
         ry="0.25537103"
         transform="matrix(0.98385715,0.17895562,-0.18466503,0.98280152,0,0)"
         inkscape:transform-center-x="0.48042818"
         inkscape:transform-center-y="0.51996385" />
      <rect
         style="fill:#ffffff;fill-opacity:1;stroke:#ffffff;stroke-width:2.23843;stroke-linecap:round;stroke-linejoin:bevel;stroke-dasharray:none;stroke-opacity:1"
         id="rect6-0-7"
         width="7.3824973"
         height="0.51074207"
         x="109.14978"
         y="47.080441"
         ry="0.25537103"
         transform="matrix(0.98385715,0.17895562,-0.18466503,0.98280152,0,0)"
         inkscape:transform-center-x="0.48042758"
         inkscape:transform-center-y="0.51996263" />
      <rect
         style="fill:#ffffff;fill-opacity:1;stroke:#fb8b24;stroke-width:2.25627;stroke-linecap:round;stroke-linejoin:bevel;stroke-dasharray:none;stroke-opacity:1"
         id="rect6"
         width="7.5676579"
         height="0.50621283"
         x="108.58375"
         y="50.542767"
         ry="0.25310642"
         transform="matrix(0.98495541,0.17280867,-0.19120348,0.98155042,0,0)"
         inkscape:transform-center-x="0.49304019"
         inkscape:transform-center-y="0.51469236" />
      <ellipse
         style="fill:#e36414;fill-opacity:1;stroke:#fb8b24;stroke-width:1.42035;stroke-linecap:round;stroke-linejoin:bevel;stroke-dasharray:none;stroke-opacity:1"
         id="path8"
         cx="9.5020142"
         cy="120.00462"
         rx="0.53352094"
         ry="0.89725435"
         transform="matrix(0.44429242,-0.89588183,0.76802706,0.64041739,0,0)" />
      <path
         style="fill:#e36414;fill-opacity:1;stroke:none;stroke-width:0.232959;stroke-linecap:round;stroke-linejoin:bevel;stroke-dasharray:none;stroke-opacity:1"
         d="m 387.45947,269.28528 c -0.34058,-0.0495 -2.54677,-0.43871 -2.55967,-0.45162 -0.007,-0.007 4.78257,-9.64222 4.81225,-9.68092 0.004,-0.005 0.12767,0.0308 0.27471,0.0802 1.61958,0.54385 2.8603,1.88527 3.28802,3.5549 0.38165,1.48977 0.0805,3.0444 -0.83996,4.33549 -0.28149,0.39486 -0.90808,1.00409 -1.30166,1.26559 -0.67802,0.4505 -1.35891,0.72817 -2.11775,0.86361 -0.38029,0.0679 -1.19596,0.0851 -1.55594,0.0328 z"
         id="path9"
         transform="matrix(0.26458333,0,0,0.26458333,1.7266411,0)" />
      <path
         style="fill:#e36414;fill-opacity:1;stroke:none;stroke-width:0.0301199;stroke-linecap:round;stroke-linejoin:bevel;stroke-dasharray:none;stroke-opacity:1"
         d="m 387.97852,269.33919 c -0.12676,-0.004 -0.29408,-0.0159 -0.43165,-0.0309 -0.11138,-0.0122 -0.11523,-0.0128 -0.11523,-0.0201 0,-0.004 0.003,-0.005 0.0127,-0.004 0.13432,0.0244 0.4808,0.0378 0.78411,0.0303 0.40432,-0.01 0.63582,-0.0306 0.88209,-0.079 0.71383,-0.14018 1.36256,-0.40944 1.99883,-0.82965 0.22452,-0.14827 0.47232,-0.35749 0.76116,-0.64263 0.25919,-0.25588 0.44836,-0.47227 0.59253,-0.67778 0.27414,-0.39079 0.49542,-0.81247 0.658,-1.25391 0.0273,-0.074 0.0881,-0.25763 0.10767,-0.32519 0.0103,-0.0354 0.0142,-0.0439 0.0199,-0.0439 0.004,0 0.007,6.9e-4 0.007,0.002 0,8.5e-4 -0.0113,0.0391 -0.0251,0.085 -0.098,0.32529 -0.2249,0.63617 -0.38005,0.93108 -0.49554,0.94194 -1.25619,1.71102 -2.19443,2.21873 -0.45586,0.24668 -0.95736,0.42919 -1.46463,0.53302 -0.39893,0.0817 -0.82224,0.11898 -1.2131,0.10697 z"
         id="path10"
         transform="matrix(0.26458333,0,0,0.26458333,1.7266411,0)" />
      <path
         style="fill:#e36414;fill-opacity:1;stroke:none;stroke-width:0.0301199;stroke-linecap:round;stroke-linejoin:bevel;stroke-dasharray:none;stroke-opacity:1"
         d="m 387.91992,269.33544 c -0.20171,-0.0111 -0.46895,-0.0357 -0.48405,-0.0445 -0.009,-0.005 0.006,-0.005 0.0584,0.002 0.0741,0.01 0.19922,0.0176 0.30062,0.0194 l 0.0957,0.002 -0.082,-0.003 c -0.14761,-0.006 -0.332,-0.0209 -0.36816,-0.0299 l -0.009,-0.002 v -1.90778 -1.90778 h 2.90234 c 1.59629,0 2.90235,10e-4 2.90235,0.003 0,0.006 -0.0447,0.15148 -0.0689,0.22357 -0.16832,0.50127 -0.41983,0.99254 -0.73194,1.42969 -0.28945,0.40542 -0.91513,1.01157 -1.32024,1.27903 -0.519,0.34265 -1.03552,0.58193 -1.59055,0.73682 -0.1359,0.0379 -0.34371,0.086 -0.46609,0.10782 -0.0215,0.004 -0.0361,0.008 -0.0325,0.008 0.0113,0.002 0.23413,-0.0444 0.35064,-0.0735 0.59829,-0.14924 1.13495,-0.38419 1.67987,-0.73543 0.27953,-0.18017 0.53488,-0.39624 0.88102,-0.74552 0.27326,-0.27572 0.42289,-0.45396 0.58939,-0.70207 0.13841,-0.20625 0.24792,-0.39461 0.35908,-0.61766 0.1379,-0.2767 0.23378,-0.51612 0.32902,-0.82164 0.0142,-0.0455 0.0283,-0.0852 0.0313,-0.0884 0.005,-0.005 0.006,-0.005 0.006,2.9e-4 0,0.008 -0.0494,0.16867 -0.0767,0.24957 -0.0787,0.23289 -0.19193,0.50292 -0.29132,0.69475 -0.0759,0.14648 -0.11662,0.2201 -0.18181,0.32868 -0.41516,0.69154 -0.96998,1.27031 -1.64544,1.71652 -0.67607,0.4466 -1.45504,0.73625 -2.25391,0.83806 -0.24578,0.0313 -0.37705,0.0397 -0.64257,0.041 -0.11817,5.7e-4 -0.22627,4.1e-4 -0.24024,-3.6e-4 z m 0.21192,-0.02 c -0.0435,-6.2e-4 -0.1147,-6.2e-4 -0.15821,0 -0.0435,6.3e-4 -0.008,10e-4 0.0791,10e-4 0.087,0 0.12261,-5.2e-4 0.0791,-10e-4 z m 0.1875,-0.004 c -0.0177,-7.3e-4 -0.0467,-7.3e-4 -0.0645,0 -0.0177,7.2e-4 -0.003,10e-4 0.0322,10e-4 0.0355,0 0.05,-5.9e-4 0.0322,-10e-4 z m 0.10757,-0.004 c -0.0123,-7.7e-4 -0.0334,-7.7e-4 -0.0469,-10e-6 -0.0135,7.7e-4 -0.003,10e-4 0.0223,10e-4 0.0258,0 0.0368,-6.2e-4 0.0246,-10e-4 z m 0.17097,-0.007 c 0.13986,-0.009 0.33989,-0.0301 0.34548,-0.036 0.001,-10e-4 -0.007,-9.7e-4 -0.0176,4e-4 -0.11227,0.0143 -0.27349,0.0286 -0.41601,0.037 -0.0365,0.002 -0.0468,0.004 -0.0291,0.004 0.0152,3.1e-4 0.0679,-0.002 0.11719,-0.005 z m 0.36794,-0.0398 c -0.004,-9.8e-4 -0.01,-9.8e-4 -0.0137,0 -0.004,9.8e-4 -6.9e-4,0.002 0.007,0.002 0.008,0 0.0106,-8.1e-4 0.007,-0.002 z m 0.0255,-0.004 c -0.003,-10e-4 -0.008,-10e-4 -0.0117,-1.4e-4 -0.004,9.9e-4 -0.002,0.002 0.005,0.002 0.006,8e-5 0.01,-7.3e-4 0.007,-0.002 z m 0.0234,-0.004 c -0.003,-10e-4 -0.008,-10e-4 -0.0117,-1.5e-4 -0.004,9.9e-4 -0.002,0.002 0.005,0.002 0.006,8e-5 0.01,-7.3e-4 0.007,-0.002 z"
         id="path11"
         transform="matrix(0.26458333,0,0,0.26458333,1.7266411,0)" />
      <path
         style="fill:#e36414;fill-opacity:1;stroke:none;stroke-width:0.0301199;stroke-linecap:round;stroke-linejoin:bevel;stroke-dasharray:none;stroke-opacity:1"
         d="m 387.91211,269.33523 c -0.20835,-0.0118 -0.46241,-0.0357 -0.47656,-0.0448 -0.006,-0.004 0.005,-0.003 0.0956,0.006 0.03,0.003 0.0775,0.007 0.10547,0.008 l 0.0509,0.002 -0.0488,-0.004 c -0.0575,-0.004 -0.19037,-0.0187 -0.20019,-0.0217 -0.007,-0.002 -0.007,-0.0964 -0.007,-1.91003 v -1.90794 h 2.90234 c 1.73443,0 2.90235,10e-4 2.90235,0.004 0,0.002 -0.01,0.0358 -0.0218,0.0752 -0.0791,0.26057 -0.16814,0.49029 -0.28955,0.74743 -0.1401,0.29672 -0.34502,0.63894 -0.53157,0.88773 -0.2409,0.32126 -0.71132,0.7915 -1.07704,1.07662 -0.0816,0.0636 -0.15864,0.11824 -0.25,0.17728 -0.43558,0.28145 -0.85144,0.48285 -1.30939,0.6341 -0.0412,0.0136 -0.0743,0.0255 -0.0735,0.0263 0.002,0.002 0.16106,-0.051 0.25456,-0.0855 0.37561,-0.1385 0.74567,-0.32412 1.09908,-0.55132 0.27851,-0.17904 0.50623,-0.36748 0.82747,-0.68475 0.317,-0.31307 0.48684,-0.51282 0.67227,-0.79065 0.29294,-0.43891 0.50729,-0.88578 0.66813,-1.39294 0.0318,-0.10044 0.0469,-0.13861 0.0469,-0.11894 0,0.009 -0.0408,0.14266 -0.0728,0.23808 -0.24003,0.71556 -0.62023,1.35542 -1.14312,1.92383 -0.0564,0.0613 -0.22475,0.22915 -0.29287,0.29199 -0.40723,0.37568 -0.8917,0.69914 -1.38967,0.92784 -0.63065,0.28964 -1.3034,0.4535 -1.99219,0.48524 -0.0751,0.003 -0.39436,0.004 -0.44922,0.001 z m 0.17676,-0.0198 c -0.0199,-7.1e-4 -0.0524,-7.1e-4 -0.0723,0 -0.0199,7.1e-4 -0.004,0.001 0.0361,0.001 0.0398,0 0.056,-5.8e-4 0.0361,-0.001 z m -0.26767,-0.004 c -0.008,-8.4e-4 -0.0204,-8.3e-4 -0.0273,3e-5 -0.007,8.7e-4 -3.1e-4,0.002 0.0147,0.002 0.015,-2e-5 0.0207,-7.2e-4 0.0126,-0.002 z m 0.47665,6e-5 c -0.006,-9e-4 -0.0156,-9e-4 -0.0215,0 -0.006,8.9e-4 -10e-4,0.002 0.0107,0.002 0.0118,0 0.0167,-7.3e-4 0.0107,-0.002 z m -0.55652,-0.004 c -0.009,-8.2e-4 -0.0249,-8.3e-4 -0.0352,-2e-5 -0.0103,8.1e-4 -0.003,10e-4 0.0165,10e-4 0.0193,10e-6 0.0277,-6.5e-4 0.0187,-10e-4 z m 0.67176,1e-4 c -0.005,-9.3e-4 -0.0127,-9.3e-4 -0.0176,0 -0.005,9.3e-4 -8.8e-4,0.002 0.009,0.002 0.01,0 0.0136,-7.6e-4 0.009,-0.002 z m 0.0995,-0.004 c -0.008,-8.5e-4 -0.0204,-8.3e-4 -0.0274,3e-5 -0.007,8.6e-4 -3e-4,0.002 0.0147,0.002 0.015,-2e-5 0.0207,-7.2e-4 0.0126,-0.002 z m 0.21005,-0.0129 c 0.10425,-0.01 0.19401,-0.02 0.19181,-0.0222 -9.4e-4,-9.4e-4 -0.0339,0.002 -0.0733,0.006 -0.0673,0.008 -0.15922,0.0157 -0.26693,0.0238 l -0.0469,0.004 0.0566,-0.002 c 0.0312,-0.001 0.0936,-0.005 0.13868,-0.009 z m 0.21394,-0.0258 c -0.003,-10e-4 -0.008,-10e-4 -0.0117,-1.5e-4 -0.004,9.9e-4 -0.002,0.002 0.005,0.002 0.006,8e-5 0.01,-7.3e-4 0.007,-0.002 z m 0.0273,-0.004 c -0.003,-0.001 -0.007,-0.001 -0.01,0 -0.003,10e-4 -4.9e-4,0.002 0.005,0.002 0.005,0 0.008,-8.9e-4 0.005,-0.002 z m 0.0253,-0.004 c -10e-4,-10e-4 -0.005,-10e-4 -0.007,-3.1e-4 -0.003,0.001 -0.002,0.002 0.002,0.002 0.004,1.7e-4 0.006,-7.6e-4 0.005,-0.002 z m 0.0234,-0.004 c -0.001,-10e-4 -0.005,-10e-4 -0.007,-3.1e-4 -0.003,10e-4 -0.002,0.002 0.002,0.002 0.004,1.7e-4 0.006,-7.5e-4 0.005,-0.002 z m 0.0274,-0.004 c -0.001,-0.001 -0.005,-0.001 -0.007,-3.1e-4 -0.003,10e-4 -0.002,0.002 0.002,0.002 0.004,1.7e-4 0.006,-7.5e-4 0.005,-0.002 z m 0.0343,-0.005 c 0.0104,-0.003 0.0107,-0.003 0.002,-0.003 -0.005,0 -0.015,0.001 -0.0215,0.003 -0.0105,0.003 -0.0107,0.003 -0.002,0.003 0.005,0 0.015,-0.001 0.0215,-0.003 z m 0.0264,-0.006 c -0.003,-10e-4 -0.007,-10e-4 -0.01,0 -0.003,0.001 -4.9e-4,0.002 0.005,0.002 0.005,0 0.008,-8.9e-4 0.005,-0.002 z m 0.0195,-0.004 c -0.003,-10e-4 -0.007,-10e-4 -0.01,0 -0.003,0.001 -4.9e-4,0.002 0.005,0.002 0.005,0 0.008,-8.9e-4 0.005,-0.002 z m 0.0322,-0.005 c 0.0105,-0.003 0.0107,-0.003 0.002,-0.003 -0.005,-4e-5 -0.0142,0.001 -0.0195,0.003 -0.008,0.002 -0.008,0.003 -0.002,0.003 0.004,-4e-5 0.0131,-0.001 0.0195,-0.003 z m 0.0371,-0.008 c 0.008,-0.002 0.008,-0.003 0.002,-0.003 -0.004,0 -0.0122,10e-4 -0.0176,0.003 -0.008,0.002 -0.008,0.003 -0.002,0.003 0.004,0 0.0122,-10e-4 0.0176,-0.003 z m 0.0244,-0.006 c -0.003,-0.001 -0.007,-0.001 -0.01,0 -0.003,10e-4 -4.9e-4,0.002 0.005,0.002 0.005,0 0.008,-8.9e-4 0.005,-0.002 z m 0.0303,-0.005 c 0.008,-0.002 0.008,-0.003 0.002,-0.003 -0.004,0 -0.0122,0.001 -0.0176,0.003 -0.008,0.002 -0.008,0.003 -0.002,0.003 0.004,0 0.0122,-0.001 0.0176,-0.003 z m 0.041,-0.009 c 0.0107,-0.003 0.0169,-0.006 0.0137,-0.006 -0.003,-1.5e-4 -0.0147,0.002 -0.0254,0.005 -0.0107,0.003 -0.0169,0.006 -0.0137,0.006 0.003,1.5e-4 0.0146,-0.002 0.0254,-0.005 z m 0.0586,-0.0137 c 0.015,-0.004 0.0247,-0.007 0.0215,-0.008 -0.003,-1.5e-4 -0.0182,0.003 -0.0332,0.007 -0.015,0.004 -0.0247,0.007 -0.0215,0.008 0.003,1.4e-4 0.0182,-0.003 0.0332,-0.007 z m 0.04,-0.0104 c -10e-4,-10e-4 -0.005,-10e-4 -0.007,-3e-4 -0.003,10e-4 -0.002,0.002 0.002,0.002 0.004,1.7e-4 0.006,-7.6e-4 0.005,-0.002 z m 0.0156,-0.004 c -0.001,-0.001 -0.005,-0.001 -0.007,-3.1e-4 -0.003,10e-4 -0.002,0.002 0.002,0.002 0.004,1.7e-4 0.006,-7.5e-4 0.005,-0.002 z m 0.0156,-0.004 c -0.001,-10e-4 -0.005,-10e-4 -0.007,-3.1e-4 -0.003,0.001 -0.002,0.002 0.002,0.002 0.004,1.7e-4 0.006,-7.5e-4 0.005,-0.002 z m 0.0382,-0.01 c 0.005,-0.002 0.004,-0.003 -0.006,-9.4e-4 -0.008,10e-4 -0.0172,0.004 -0.0215,0.006 -0.005,0.002 -0.004,0.003 0.006,9.3e-4 0.008,-0.001 0.0172,-0.004 0.0215,-0.006 z m 0.0204,-0.006 c -0.001,-10e-4 -0.005,-10e-4 -0.007,-3.1e-4 -0.003,10e-4 -0.002,0.002 0.002,0.002 0.004,1.7e-4 0.006,-7.6e-4 0.005,-0.002 z m 0.0382,-0.01 c 0.005,-0.002 0.004,-0.003 -0.006,-9.4e-4 -0.008,0.001 -0.0172,0.004 -0.0215,0.006 -0.005,0.002 -0.004,0.003 0.006,9.4e-4 0.008,-0.001 0.0172,-0.004 0.0215,-0.006 z m 0.0273,-0.007 c 0.005,-0.002 0.006,-0.003 0.002,-0.003 -0.003,0 -0.009,0.002 -0.0137,0.003 -0.005,0.002 -0.006,0.003 -0.002,0.003 0.003,0 0.009,-0.002 0.0137,-0.003 z m 0.0274,-0.008 c 0.005,-0.002 0.006,-0.003 0.002,-0.003 -0.003,0 -0.009,0.002 -0.0137,0.003 -0.005,0.002 -0.006,0.003 -0.002,0.003 0.003,0 0.009,-0.002 0.0137,-0.003 z m 0.0273,-0.008 c 0.005,-0.002 0.006,-0.003 0.002,-0.003 -0.003,0 -0.009,0.002 -0.0137,0.003 -0.005,0.002 -0.006,0.003 -0.002,0.003 0.003,0 0.009,-0.002 0.0137,-0.003 z m 0.0332,-0.01 c 0.008,-0.003 0.011,-0.005 0.008,-0.005 -0.003,0 -0.012,0.002 -0.0195,0.005 -0.008,0.003 -0.011,0.005 -0.008,0.005 0.003,0 0.012,-0.002 0.0195,-0.005 z m 0.0391,-0.0117 c 0.008,-0.003 0.011,-0.005 0.008,-0.005 -0.003,0 -0.012,0.002 -0.0195,0.005 -0.008,0.003 -0.011,0.005 -0.008,0.005 0.003,0 0.012,-0.002 0.0195,-0.005 z"
         id="path12"
         transform="matrix(0.26458333,0,0,0.26458333,1.7266411,0)" />
      <path
         style="fill:#e36414;fill-opacity:1;stroke:none;stroke-width:0.0602397;stroke-linecap:round;stroke-linejoin:bevel;stroke-dasharray:none;stroke-opacity:1"
         d="m 393.24917,265.44141 c 0.003,-0.0108 0.0226,-0.0899 0.0438,-0.17579 0.2192,-0.88817 0.19057,-1.82416 -0.0831,-2.71756 -0.18163,-0.59289 -0.49085,-1.18058 -0.87515,-1.66329 -0.0402,-0.0505 -0.0686,-0.0918 -0.0632,-0.0918 0.0188,9e-5 0.23332,0.28359 0.34672,0.45814 0.46949,0.72268 0.73699,1.49854 0.81576,2.36604 0.0141,0.15512 0.0185,0.55363 0.008,0.72657 -0.016,0.26447 -0.0542,0.54809 -0.10668,0.79296 -0.031,0.1444 -0.0738,0.30795 -0.0829,0.3164 -0.006,0.005 -0.007,0.002 -0.003,-0.0117 z"
         id="path13"
         transform="matrix(0.26458333,0,0,0.26458333,1.7266411,0)" />
      <path
         style="fill:#e36414;fill-opacity:1;stroke:none;stroke-width:0.0602397;stroke-linecap:round;stroke-linejoin:bevel;stroke-dasharray:none;stroke-opacity:1"
         d="m 393.33265,265.13997 c 3.7e-4,-0.009 0.002,-0.0109 0.005,-0.005 0.002,0.006 0.002,0.0124 -6.2e-4,0.015 -0.003,0.003 -0.004,-0.002 -0.004,-0.0103 z"
         id="path14"
         transform="matrix(0.26458333,0,0,0.26458333,1.7266411,0)" />
    </g>
    <rect
       style="fill:#ffffff;fill-opacity:1;stroke:none;stroke-width:1.05874;stroke-linecap:round;stroke-linejoin:bevel"
       id="rect2-6-0-3"
       width="4.8352876"
       height="27.380409"
       x="-126.51959"
       y="-35.048801"
       ry="2.0895574"
       transform="matrix(-0.70798504,-0.70622743,-0.53103393,0.84735056,0,0)" />
    <path
       style="fill:#e36414;fill-opacity:1;stroke:none;stroke-width:0.963836;stroke-linecap:round;stroke-linejoin:bevel;stroke-dasharray:none;stroke-opacity:1"
       d="m 383.5975,268.57483 c -0.63388,-0.11724 -1.17424,-0.23829 -1.2008,-0.269 -0.0999,-0.11549 4.2609,-9.55717 4.42849,-9.5882 0.35055,-0.0649 2.67481,0.41031 2.67481,0.54689 0,0.17934 -4.6044,9.54164 -4.6875,9.53127 -0.0344,-0.004 -0.58113,-0.10372 -1.215,-0.22096 z"
       id="path15"
       transform="scale(0.26458333)" />
    <path
       style="fill:#e36414;fill-opacity:1;stroke:none;stroke-width:0.963836;stroke-linecap:round;stroke-linejoin:bevel;stroke-dasharray:none;stroke-opacity:1"
       d="m 369.1875,311.97743 c -2.028,-0.20886 -5.27533,-0.82563 -6.23216,-1.18368 l -0.29467,-0.11026 0.43016,-0.52925 c 0.6693,-0.82346 0.94884,-1.37313 2.90744,-5.71674 1.00751,-2.23438 1.87704,-4.10885 1.93228,-4.1655 0.0552,-0.0566 0.43097,-0.0408 0.83495,0.0352 1.27491,0.23985 3.42521,0.30148 4.7452,0.136 7.80424,-0.97834 13.88953,-6.94637 15.57742,-15.27724 0.24784,-1.22326 0.28616,-1.78165 0.2816,-4.10344 -0.006,-3.08695 -0.18865,-4.23314 -1.07523,-6.75 -0.27851,-0.79063 -0.61771,-1.775 -0.75378,-2.1875 -0.39755,-1.20517 -0.81316,-2.01745 -1.31842,-2.57671 -0.35365,-0.39145 -0.40931,-0.50389 -0.2221,-0.44869 0.13739,0.0405 0.53106,0.10266 0.87481,0.13811 0.34375,0.0355 0.0949,-0.0462 -0.55308,-0.18138 -0.64795,-0.1352 -1.20299,-0.27074 -1.23344,-0.30118 -0.0304,-0.0304 1.00595,-2.19685 2.30309,-4.81425 l 2.35843,-4.75889 0.78247,0.37301 c 0.97924,0.46682 1.87543,1.35214 2.35121,2.32271 0.34442,0.70259 0.36632,0.83871 0.36632,2.27671 0,0.93633 0.0376,1.39683 0.0971,1.1875 0.13059,-0.46007 0.14705,-1.71257 0.0316,-2.40444 l -0.0939,-0.5625 0.4297,0.5625 c 1.20562,1.57825 2.59991,3.91868 3.58891,6.02432 4.24674,9.04151 4.34417,19.11307 0.26518,27.41318 -1.42824,2.90625 -2.91635,5.00786 -5.16433,7.29338 -4.55872,4.63486 -10.34694,7.42254 -17.03667,8.20508 -1.44698,0.16926 -4.97055,0.22854 -6.18008,0.10397 z m 23.26594,-44.75868 c 0.15549,-0.19826 0.15107,-0.20268 -0.0472,-0.0472 -0.20822,0.1633 -0.27444,0.26595 -0.17156,0.26595 0.026,0 0.1244,-0.0984 0.21875,-0.21875 z"
       id="path16"
       transform="scale(0.26458333)" />
    <path
       style="fill:#e36414;fill-opacity:1;stroke:none;stroke-width:0.0851918;stroke-linecap:round;stroke-linejoin:bevel;stroke-dasharray:none;stroke-opacity:1"
       d="m 383.55019,268.61562 c -0.72313,-0.12749 -1.31596,-0.23296 -1.31739,-0.23439 -0.003,-0.003 4.42372,-9.79545 4.43105,-9.80278 0.004,-0.004 2.37921,0.40918 2.62053,0.45549 0.0486,0.009 0.17273,0.0373 0.27581,0.0622 0.14403,0.0347 0.1817,0.0473 0.16271,0.0544 -0.0242,0.009 -0.39078,0.73797 -1.99643,3.97057 -0.23241,0.46791 -0.64752,1.30318 -0.92247,1.85616 -0.27495,0.55298 -0.63293,1.27389 -0.79551,1.60204 -0.16259,0.32814 -0.45589,0.91979 -0.65179,1.31477 -0.46645,0.94051 -0.4672,0.9421 -0.44394,0.94825 0.11214,0.0297 -0.25727,-0.0318 -1.36257,-0.22666 z m 1.35343,0.0394 c 0.27655,-0.49483 1.993,-3.92681 2.86717,-5.73278 0.0441,-0.0912 0.1385,-0.28505 0.20973,-0.43089 0.61817,-1.26558 1.23372,-2.55395 1.42527,-2.98311 0.0926,-0.20742 0.1016,-0.23408 0.0871,-0.25737 -0.079,-0.12684 -1.87038,-0.51199 -2.51296,-0.54028 -0.14522,-0.006 -0.15071,-0.006 -0.17298,0.0181 -0.15041,0.16144 -1.58435,3.16143 -3.00324,6.28312 -0.87883,1.93353 -1.4081,3.16352 -1.4081,3.27236 0,0.03 0.005,0.0333 0.0801,0.056 0.18973,0.0572 0.73765,0.16946 1.56614,0.32087 0.23395,0.0428 0.49,0.09 0.569,0.10497 0.21995,0.0417 0.20408,0.0477 0.29277,-0.111 z"
       id="path17"
       transform="scale(0.26458333)" />
  </g>
</svg>
